<?xml version="1.0" encoding="UTF-8" standalone="no"?><!DOCTYPE svg PUBLIC "-//W3C//DTD SVG 1.1//EN" "http://www.w3.org/Graphics/SVG/1.1/DTD/svg11.dtd"><svg width="100%" height="100%" viewBox="0 0 1522 394" version="1.1" xmlns="http://www.w3.org/2000/svg" xmlns:xlink="http://www.w3.org/1999/xlink" xml:space="preserve" xmlns:serif="http://www.serif.com/" style="fill-rule:evenodd;clip-rule:evenodd;stroke-linejoin:round;stroke-miterlimit:2;"><g id="Logo"><path d="M112.503,244.803c24.825,0 45.439,-18.511 45.439,-46.701c0,-29.031 -20.614,-47.546 -45.439,-47.546c-24.404,0 -45.44,19.355 -45.44,47.546c0,29.449 21.455,46.701 45.44,46.701m-46.702,-145.578l0,24.403c9.676,-18.092 33.236,-28.611 57.64,-28.611c50.491,0 95.09,39.971 95.09,101.822c0,63.111 -44.599,103.082 -95.09,103.082c-24.404,0 -47.964,-10.097 -57.64,-28.19l0,122.245l-65.527,0l0,-294.751l65.527,0Z" style="fill:#26376d;fill-rule:nonzero;"/><path d="M350.632,243.962c23.985,0 47.545,-17.252 47.545,-46.702c0,-29.452 -23.56,-46.704 -47.545,-46.704c-24.404,0 -49.226,18.514 -49.226,46.704c0,28.191 24.822,46.702 49.226,46.702m47.545,29.452c-12.622,18.933 -42.074,26.085 -57.221,26.085c-50.069,0 -100.139,-39.128 -100.139,-102.239c0,-63.113 50.07,-102.244 100.139,-102.244c12.619,0 42.075,4.208 57.221,26.087l0,-21.879l65.497,0l0,196.491l-65.497,0l0,-22.301Z" style="fill:#26376d;fill-rule:nonzero;"/><path d="M794.937,295.715l-65.506,0l0,-294.788l65.506,0l0,152.152l46.701,-53.853l74.477,0l-81.625,86.673l98.033,109.816l-71.948,0l-65.638,-77.838l0,77.838Z" style="fill:#26376d;fill-rule:nonzero;"/><path d="M574.613,295.715l-65.506,0l0,-294.788l65.506,0l0,152.152l46.702,-53.853l74.476,0l-81.625,86.673l98.033,109.816l-71.948,0l-65.638,-77.838l0,77.838Z" style="fill:#26376d;fill-rule:nonzero;"/><path d="M1069.67,180.009c-2.946,-23.985 -24.825,-33.661 -41.234,-33.661c-16.408,0 -38.709,8.835 -43.758,33.661l84.992,0Zm47.964,79.943c-19.773,29.45 -56.377,39.969 -89.62,39.969c-56.377,0 -102.663,-41.231 -102.663,-103.082c0,-61.851 46.286,-101.823 102.663,-101.823c55.959,0 100.558,41.656 100.558,103.504c0,5.049 -0.419,13.044 -0.84,18.093l-143.894,0c2.942,22.719 27.768,32.82 48.382,32.82c15.99,0 33.242,-5.892 42.918,-18.514l42.496,29.033Z" style="fill:#26376d;fill-rule:nonzero;"/><rect x="1456.06" y="99.222" width="65.494" height="65.497" style="fill:#ff0900;"/><rect x="1456.06" y="230.216" width="65.494" height="65.497" style="fill:#ff0900;"/><rect x="1325.07" y="99.222" width="65.497" height="65.497" style="fill:#ff0900;"/><rect x="1325.07" y="230.216" width="65.497" height="65.497" style="fill:#ff0900;"/></g></svg>